<svg width="32" height="32" viewBox="0 0 32 32" fill="none" xmlns="http://www.w3.org/2000/svg">
  <!-- Background circle -->
  <circle cx="16" cy="16" r="16" fill="#1a1a2e"/>
  
  <!-- Microphone body -->
  <rect x="13" y="8" width="6" height="10" rx="3" fill="#4f46e5" stroke="#6366f1" stroke-width="0.5"/>
  
  <!-- Microphone stand -->
  <rect x="15.5" y="18" width="1" height="4" fill="#6366f1"/>
  
  <!-- Microphone base -->
  <rect x="12" y="22" width="8" height="1.5" rx="0.75" fill="#6366f1"/>
  
  <!-- Sound waves (AI visualization) -->
  <path d="M21 12c0-1.5 1-3 2.5-3" stroke="#10b981" stroke-width="1.5" stroke-linecap="round" fill="none"/>
  <path d="M21 16c0 1.5 1 3 2.5 3" stroke="#10b981" stroke-width="1.5" stroke-linecap="round" fill="none"/>
  
  <path d="M8.5 12c0-1.5-1-3-2.5-3" stroke="#10b981" stroke-width="1.5" stroke-linecap="round" fill="none"/>
  <path d="M8.5 16c0 1.5-1 3-2.5 3" stroke="#10b981" stroke-width="1.5" stroke-linecap="round" fill="none"/>
  
  <!-- AI indicator dots -->
  <circle cx="16" cy="6" r="1" fill="#f59e0b" opacity="0.8"/>
  <circle cx="18" cy="5" r="0.5" fill="#f59e0b" opacity="0.6"/>
  <circle cx="14" cy="5" r="0.5" fill="#f59e0b" opacity="0.6"/>
</svg>
